# xmcd
# Copyright (C) 1995-1998 Ti Kan
#
# Track frame offsets:
#       150
#       7616
#       30759
#       50428
#       80457
#       100953
#       122262
#       139228
#       159462
#       167406
#       184859
#       204561
#       229369
#       256269
#       273978
#
# Disc length: 3755 seconds
#
# Revision: 0
# Processed by: cddbd v1.5.2PL0 Copyright (c) Steve Scherf et al.
# Submitted via: CD-Import v1.0
#
DISCID=b30ea90f
DTITLE=Us3 - An Ordinary Day In An Unusal Place
DYEAR=1900
DGENRE=
TTITLE0=An Ordinary Day In An Unusual Place (Part 1)
TTITLE1=Get Out
TTITLE2=You Can't Hold Me Down
TTITLE3=Let My Dreams Come True
TTITLE4=India
TTITLE5=Sittin' On My Park Bench
TTITLE6=Dead End Street
TTITLE7=Enough
TTITLE8=Enough (Bonus Beats)
TTITLE9=World No More
TTITLE10=Pay Attention
TTITLE11=Sugar Sugar (She She Wah Wah)
TTITLE12=Why?
TTITLE13=Shady People
TTITLE14=An Ordinary Day In An Unusual Place (Part 2)
EXTD=
EXTT0=
EXTT1=
EXTT2=
EXTT3=
EXTT4=
EXTT5=
EXTT6=
EXTT7=
EXTT8=
EXTT9=
EXTT10=
EXTT11=
EXTT12=
EXTT13=
EXTT14=
PLAYORDER=
